# xmcd
#
# Track frame offsets:
#	150
#	21375
#	49560
#	76945
#	93370
#	111020
#	128805
#	136390
#	152945
#	176225
#	187135
#	213050
#	221440
#	253305
#	276770
#	309295
#
# Disc length: 4438 seconds
#
# Revision: 2
# Processed by: cddbd v1.5.1PL2 Copyright (c) Steve Scherf et al.
# Submitted via: EasyCDDAExtractor 8.0.2.1
#
DISCID=e3115410
DTITLE=Dio - Casino Ballroom Hampton Beach 08-06-94
DYEAR=1994
DGENRE=Hard Rock
TTITLE0=Jesus Mary and The Holy Ghost
TTITLE1=Strange Highways
TTITLE2=Don't Talk To Strangers
TTITLE3=Stand Up And Shout
TTITLE4=Pain
TTITLE5=Guitar Solo
TTITLE6=Pain Reprise
TTITLE7=The Mob Rules
TTITLE8=Holy Diver
TTITLE9=Man On The Silver Mountain
TTITLE10=Drum Solo
TTITLE11=Heaven and Hell Reprise
TTITLE12=Evilution
TTITLE13=Hollywood Black
TTITLE14=The Last In Line
TTITLE15=Rainbow In The Dark
EXTD=
EXTT0=
EXTT1=
EXTT2=
EXTT3=
EXTT4=
EXTT5=
EXTT6=
EXTT7=
EXTT8=
EXTT9=
EXTT10=
EXTT11=
EXTT12=
EXTT13=
EXTT14=
EXTT15=
PLAYORDER=
